<?xml version="1.0" standalone="no"?>
<!DOCTYPE svg PUBLIC "-//W3C//DTD SVG 20010904//EN"
 "http://www.w3.org/TR/2001/REC-SVG-20010904/DTD/svg10.dtd">
<svg version="1.0" xmlns="http://www.w3.org/2000/svg"
 width="512.000000pt" height="512.000000pt" viewBox="0 0 512.000000 512.000000"
 preserveAspectRatio="xMidYMid meet">

<g transform="translate(0.000000,512.000000) scale(0.100000,-0.100000)"
fill="#000000" stroke="none">
<path d="M1930 5105 c-34 -8 -89 -11 -146 -8 -76 5 -97 3 -135 -14 -100 -45
-134 -109 -152 -288 l-13 -127 25 -10 c48 -19 213 -58 245 -58 49 0 59 -12 54
-61 -7 -71 10 -276 32 -383 42 -204 115 -383 224 -545 l56 -83 -42 -102 c-53
-128 -104 -214 -197 -329 -111 -137 -168 -231 -280 -456 -284 -567 -498 -1137
-652 -1736 l-38 -150 26 -27 c15 -16 58 -49 96 -75 90 -61 103 -80 89 -134
-23 -91 28 -123 200 -125 153 -2 160 -6 194 -119 15 -48 44 -56 149 -40 50 8
100 14 113 15 31 0 108 -73 137 -131 13 -25 38 -58 54 -72 56 -47 87 -51 311
-41 253 10 301 10 572 0 l216 -9 54 26 c42 21 60 37 85 80 38 63 101 124 139
133 15 4 66 2 113 -3 119 -14 138 -4 155 79 4 15 17 39 30 54 23 27 25 28 147
28 99 1 131 5 161 19 44 22 59 57 46 106 -14 50 1 73 89 135 43 30 88 65 100
78 l22 24 -38 149 c-153 596 -370 1173 -652 1736 -115 231 -160 305 -265 436
-106 133 -158 216 -209 341 l-45 111 57 83 c157 230 241 503 250 814 l5 170
42 3 c50 3 108 15 204 43 l72 21 0 41 c0 81 -21 220 -39 260 -22 51 -86 109
-136 126 -26 8 -66 11 -119 7 -55 -5 -104 -2 -151 8 -38 8 -70 15 -71 15 0 0
-7 -19 -14 -42 -49 -164 -184 -305 -350 -366 -89 -33 -231 -41 -319 -18 -167
43 -304 153 -379 305 -23 46 -42 92 -42 102 0 21 -3 21 -80 4z"/>
</g>
</svg>
