<?xml version="1.0" standalone="no"?>
<!DOCTYPE svg PUBLIC "-//W3C//DTD SVG 20010904//EN"
 "http://www.w3.org/TR/2001/REC-SVG-20010904/DTD/svg10.dtd">
<svg version="1.0" xmlns="http://www.w3.org/2000/svg"
 width="512.000000pt" height="512.000000pt" viewBox="0 0 512.000000 512.000000"
 preserveAspectRatio="xMidYMid meet">

<g transform="translate(0.000000,512.000000) scale(0.100000,-0.100000)"
fill="#000000" stroke="none">
<path d="M2272 4979 c-112 -12 -204 -32 -277 -60 -126 -47 -161 -129 -89 -208
77 -86 233 -164 406 -203 72 -16 127 -20 248 -20 176 0 263 14 403 66 l87 33
0 -88 0 -88 -37 -30 c-60 -50 -150 -78 -335 -106 l-38 -6 0 -96 0 -96 64 7
c201 20 444 128 517 229 l29 40 0 234 c0 225 -1 236 -22 265 -31 44 -131 87
-256 110 -124 22 -559 33 -700 17z"/>
<path d="M1870 4445 c0 -70 4 -94 20 -119 39 -63 151 -136 287 -186 81 -29
221 -60 274 -60 l29 0 0 95 c0 108 14 94 -120 115 -94 15 -236 61 -314 103
-33 18 -86 56 -118 86 l-58 53 0 -87z"/>
<path d="M3847 4037 c138 -145 276 -346 426 -620 70 -130 79 -141 128 -171
161 -97 229 -135 229 -128 0 17 -157 295 -227 402 -200 305 -354 462 -554 565
l-94 48 92 -96z"/>
</g>
</svg>
