<?xml version="1.0" standalone="no"?>
<!DOCTYPE svg PUBLIC "-//W3C//DTD SVG 20010904//EN"
 "http://www.w3.org/TR/2001/REC-SVG-20010904/DTD/svg10.dtd">
<svg version="1.0" xmlns="http://www.w3.org/2000/svg"
 width="512.000000pt" height="512.000000pt" viewBox="0 0 512.000000 512.000000"
 preserveAspectRatio="xMidYMid meet">

<g transform="translate(0.000000,512.000000) scale(0.100000,-0.100000)"
fill="#000000" stroke="none">
<path d="M2048 5010 c-259 -47 -467 -202 -575 -427 -59 -122 -65 -157 -70
-400 l-5 -223 -474 0 -474 0 -15 -23 c-14 -21 -15 -220 -13 -1838 l3 -1814 29
-53 c16 -28 44 -63 62 -77 77 -58 -53 -55 2053 -55 l1936 0 51 24 c28 13 65
41 82 62 66 80 62 -57 62 1934 0 1738 -1 1808 -18 1823 -17 15 -71 17 -569 17
l-551 0 -5 218 c-4 185 -8 228 -26 291 -63 213 -192 371 -381 466 -179 89
-404 104 -597 40 -69 -23 -74 -24 -110 -8 -100 42 -288 63 -395 43z m926 -137
c201 -50 362 -201 431 -403 27 -81 29 -95 33 -297 l4 -213 -260 0 -259 0 -6
208 c-4 167 -9 222 -26 287 -37 140 -124 283 -226 373 -44 39 -45 41 -23 48
80 25 225 24 332 -3z m-651 2 c16 -7 12 -14 -32 -52 -94 -82 -168 -205 -213
-350 -17 -56 -22 -106 -27 -288 l-6 -220 -264 -3 -263 -2 5 207 c5 228 12 272
69 390 47 98 168 218 269 266 114 55 174 67 319 63 69 -2 133 -7 143 -11z
m211 -94 c67 -47 151 -144 189 -221 56 -111 71 -196 71 -410 l1 -185 -312 -3
-313 -2 0 187 c0 215 12 291 63 398 19 38 53 94 76 123 40 50 152 142 173 142
5 0 29 -13 52 -29z m-1134 -1098 l0 -156 -41 -35 c-23 -20 -48 -51 -55 -69
-32 -76 -6 -168 63 -220 30 -23 46 -28 94 -28 49 0 63 4 96 31 48 38 73 87 73
142 0 59 -20 102 -69 144 l-41 35 0 156 0 157 635 0 635 0 0 -156 0 -156 -43
-42 c-89 -86 -80 -217 18 -285 54 -36 114 -39 169 -7 111 65 125 202 30 293
l-44 43 0 155 0 155 425 0 425 0 0 -1810 0 -1810 -1565 0 c-1702 0 -1601 -3
-1639 54 -15 23 -16 168 -16 1796 l0 1770 425 0 425 0 0 -157z m3170 -1600 l0
-1758 -135 135 -135 135 0 1332 c0 1466 5 1363 -60 1363 -65 0 -60 103 -60
-1363 l0 -1332 -140 -140 -140 -140 0 1763 0 1762 335 0 335 0 0 -1757z
m-3061 1293 c12 -25 11 -31 -6 -55 -11 -14 -28 -28 -37 -29 -26 -5 -56 27 -56
59 0 61 72 80 99 25z m1383 17 c45 -41 -2 -120 -57 -95 -32 15 -42 55 -21 87
19 29 51 32 78 8z m1471 -3041 c65 -65 115 -121 111 -125 -4 -4 -117 -7 -252
-7 l-245 0 129 125 c71 68 131 124 134 125 3 0 58 -53 123 -118z"/>
<path d="M1550 2673 c-8 -3 -149 -139 -312 -302 -225 -223 -298 -302 -298
-320 0 -35 324 -361 359 -361 19 0 49 23 113 87 l88 88 0 -518 0 -518 25 -24
24 -25 611 0 c597 0 610 0 630 20 19 19 20 33 20 542 l0 522 89 -87 c62 -61
96 -87 113 -87 18 0 67 43 193 170 94 93 172 179 173 191 3 17 -62 87 -297
323 l-301 301 -200 0 c-229 0 -227 1 -241 -85 -21 -136 -166 -201 -280 -126
-41 28 -79 96 -79 143 0 18 -8 38 -21 49 -19 17 -40 19 -208 21 -102 1 -193 0
-201 -4z m329 -168 c26 -62 86 -127 145 -157 58 -30 168 -36 237 -13 70 23
159 110 181 175 l15 45 134 3 134 2 255 -255 255 -255 -107 -107 -108 -107
-123 122 c-79 78 -131 122 -145 122 -11 0 -30 -12 -41 -26 -21 -26 -21 -35
-21 -585 l0 -559 -530 0 -530 0 0 378 c0 503 -9 749 -27 768 -35 34 -64 18
-183 -101 l-115 -115 -108 108 -108 109 253 251 253 252 131 0 130 0 23 -55z"/>
</g>
</svg>
